<svg width="70" height="60" viewBox="0 0 70 60" fill="none" xmlns="http://www.w3.org/2000/svg">
<path d="M0 44.5835V24.1668H5.83333V44.5835H0ZM8.75 35.8335V15.4168H14.5833V35.8335H8.75ZM23.3333 59.1668C21.7292 59.1668 20.3564 58.5961 19.215 57.4547C18.0736 56.3134 17.5019 54.9396 17.5 53.3335V6.66683C17.5 5.06266 18.0717 3.68989 19.215 2.5485C20.3583 1.40711 21.7311 0.835441 23.3333 0.833496H46.6667C48.2708 0.833496 49.6446 1.40516 50.7879 2.5485C51.9313 3.69183 52.5019 5.06461 52.5 6.66683V53.3335C52.5 54.9377 51.9293 56.3114 50.7879 57.4547C49.6465 58.5981 48.2728 59.1688 46.6667 59.1668H23.3333ZM55.4167 44.5835V24.1668H61.25V44.5835H55.4167ZM64.1667 35.8335V15.4168H70V35.8335H64.1667ZM23.3333 44.5835H46.6667V15.4168H23.3333V44.5835Z" fill="#99CC67"/>
</svg>
