<svg width="50" height="50" viewBox="0 0 50 50" fill="none" xmlns="http://www.w3.org/2000/svg">
<g clip-path="url(#clip0_190_231)">
<path fill-rule="evenodd" clip-rule="evenodd" d="M12.5 0C9.18479 0 6.00537 1.31696 3.66116 3.66116C1.31696 6.00537 0 9.18479 0 12.5L0 22.8393H14.8036L19.5143 14.9607C19.739 14.5855 20.069 14.2845 20.4633 14.0952C20.8576 13.906 21.2989 13.8367 21.7322 13.896C22.1655 13.9554 22.5719 14.1407 22.9008 14.4291C23.2297 14.7174 23.4666 15.096 23.5821 15.5179L27.6536 30.4393L32.0714 23.8321C32.2765 23.5277 32.553 23.2781 32.8767 23.105C33.2004 22.932 33.5615 22.8407 33.9286 22.8393H50V12.5C50 9.18479 48.683 6.00537 46.3388 3.66116C43.9946 1.31696 40.8152 0 37.5 0H12.5ZM50 27.3036H35.1214L28.6429 36.9893C28.405 37.3457 28.0696 37.6261 27.6767 37.7971C27.2838 37.968 26.85 38.0223 26.4271 37.9534C26.0042 37.8845 25.6101 37.6953 25.2918 37.4084C24.9735 37.1216 24.7445 36.7492 24.6321 36.3357L20.6536 21.7536L17.9857 26.2179C17.7863 26.5476 17.5056 26.8206 17.1704 27.0107C16.8352 27.2008 16.4568 27.3017 16.0714 27.3036H0V37.5C0 40.8152 1.31696 43.9946 3.66116 46.3388C6.00537 48.683 9.18479 50 12.5 50H37.5C40.8152 50 43.9946 48.683 46.3388 46.3388C48.683 43.9946 50 40.8152 50 37.5V27.3036Z" fill="#99CC67"/>
</g>
<defs>
<clipPath id="clip0_190_231">
<rect width="50" height="50" fill="white"/>
</clipPath>
</defs>
</svg>
