<svg width="45" height="53" viewBox="0 0 45 53" fill="none" xmlns="http://www.w3.org/2000/svg">
<path d="M45 42.9048V45.4286H0V42.9048L5 37.8571V22.7143C5 14.8905 10.075 8.00048 17.5 5.77952V5.04762C17.5 3.70891 18.0268 2.42503 18.9645 1.47841C19.9021 0.531801 21.1739 0 22.5 0C23.8261 0 25.0979 0.531801 26.0355 1.47841C26.9732 2.42503 27.5 3.70891 27.5 5.04762V5.77952C34.925 8.00048 40 14.8905 40 22.7143V37.8571L45 42.9048ZM27.5 47.9524C27.5 49.2911 26.9732 50.575 26.0355 51.5216C25.0979 52.4682 23.8261 53 22.5 53C21.1739 53 19.9021 52.4682 18.9645 51.5216C18.0268 50.575 17.5 49.2911 17.5 47.9524" fill="#99CC67"/>
</svg>
